<?xml version="1.0" standalone="no"?>
<!DOCTYPE svg PUBLIC "-//W3C//DTD SVG 1.1//EN" "http://www.w3.org/Graphics/SVG/1.1/DTD/svg11.dtd" >
<svg xmlns="http://www.w3.org/2000/svg">
<metadata></metadata>
<defs>
<font id="OpticonOne1" horiz-adv-x="1196" >
<font-face units-per-em="2048" ascent="1638" descent="-410" />
<missing-glyph horiz-adv-x="168" />
<glyph horiz-adv-x="0" />
<glyph horiz-adv-x="2048" />
<glyph unicode=" "  horiz-adv-x="168" />
<glyph unicode="&#x09;" horiz-adv-x="168" />
<glyph unicode="&#xa0;" horiz-adv-x="168" />
<glyph unicode="!" horiz-adv-x="549" d="M201 1700l164 1l-34 -1291h-106zM208 0l1 131h148v-131h-149z" />
<glyph unicode="&#x22;" horiz-adv-x="827" d="M213 1421v279l131 1v-280h-131zM500 1421v280l131 -1v-279h-131z" />
<glyph unicode="#" horiz-adv-x="2273" d="M111 369v139h487l245 438h-405v139h487l239 422l122 -70l-204 -352h503l242 422l119 -70l-201 -352h409v-139h-491l-246 -438h410v-139h-487l-238 -422l-124 70l201 352h-499l-242 -422l-119 70l197 352h-405zM748 498h518l250 465h-521z" />
<glyph unicode="$" horiz-adv-x="1225" d="M99 234l106 123l73 -66q100 -86 254 -107v565q-168 39 -300 145q-126 126 -126 314q15 140 116 240q42 41 85 68q102 61 225 85v103h164l1 -94q221 -19 360 -148l-107 -122q-102 89 -254 102v-561q227 -52 301 -145q126 -126 126 -314q-15 -140 -116 -240 q-115 -115 -311 -153v-99h-164v90q-218 19 -360 148zM270 1196q-2 -105 70 -177q14 -13 17 -15q62 -57 175 -91v524q-67 -17 -139 -61q-32 -20 -58 -46q-64 -64 -65 -134zM696 717l1 -524q75 19 139 61q36 24 57 45q64 63 66 135q4 103 -70 177q-14 14 -17 16 q-55 55 -176 90z" />
<glyph unicode="%" horiz-adv-x="1498" d="M102 1188q0 120 81.5 201.5t201.5 81.5q119 0 200.5 -81.5t81.5 -201.5q0 -117 -82 -198t-200 -81q-116 0 -201 82q-82 79 -82 197zM242 1188q0 -58 42.5 -101t100.5 -43q60 0 103.5 42t43.5 102q0 58 -44 102.5t-103 44.5q-60 0 -101.5 -43.5t-41.5 -103.5zM266 17 l844 1491l119 -71l-844 -1490zM828 270q0 117 80.5 197.5t201.5 80.5q116 0 197.5 -81.5t81.5 -196.5q0 -118 -81 -200t-198 -82q-119 0 -200.5 81.5t-81.5 200.5zM963 270q0 -58 44.5 -102.5t102.5 -44.5q61 0 101.5 43t41.5 104q1 55 -33 88q-8 8 -12 11q-8 11 -10 12 q-33 33 -88 32q-59 0 -93 -33q-8 -8 -10 -11q-45 -44 -44 -99z" />
<glyph unicode="&#x26;" horiz-adv-x="1278" d="M81 360q0 155 191 249q71 35 195 84q-86 105 -86 270q0 196 106 301q58 58 127 59q77 0 152 -62q102 -102 103 -298q0 -184 -112 -296q-24 -24 -61 -49l332 -327q20 39 20 69v17h123v-17q0 -86 -57 -155l115 -114l-86 -87l-114 119q-167 -123 -415 -123q-174 0 -320 78 q-77 41 -122 86q-91 93 -91 196zM201 360q0 -57 53 -110q129 -127 360 -127q209 0 332 78l-385 385q-238 -60 -320 -142q-40 -40 -40 -84zM500 963q0 -134 65 -205l46 -50h3q38 16 69 47q75 75 75 208q0 105 -65 213q-30 24 -79 24q-24 -3 -44 -24q-70 -88 -70 -213z" />
<glyph unicode="'" horiz-adv-x="491" d="M184 1421v279h132v-279h-132z" />
<glyph unicode="(" horiz-adv-x="774" d="M99 733q0 43 20 78l410 680l115 -74q-74 -119 -221 -358l-143 -231q-44 -73 -52 -87v-16l411 -651l-114 -74l-406 651q-20 35 -20 82z" />
<glyph unicode=")" horiz-adv-x="774" d="M131 1417l115 74l409 -680q20 -34 21 -78q0 -48 -21 -82q-2 -4 -123 -199l-282 -452l-116 74l413 651v16q-8 14 -83 135z" />
<glyph unicode="*" horiz-adv-x="622" d="M106 1437l107 58l-107 61l49 86l107 -61v119l98 1v-120l103 61l49 -86l-102 -61l102 -58l-49 -85l-103 61v-123h-98v123l-107 -61z" />
<glyph unicode="+" horiz-adv-x="915" d="M121 529v130h266v266h131l-1 -266h267v-130h-266v-267h-131v267h-266z" />
<glyph unicode="," horiz-adv-x="491" d="M65 -29l213 213l91 -90l-214 -213z" />
<glyph unicode="-" horiz-adv-x="700" d="M140 516v131h409v-131h-409z" />
<glyph unicode="." horiz-adv-x="442" d="M147 0v131h148v-131h-148z" />
<glyph unicode="/" horiz-adv-x="950" d="M-8 4l844 1491l118 -70l-848 -1483z" />
<glyph unicode="0" horiz-adv-x="1249" d="M135 160q0 405 218 623q123 123 274 123q150 0 257 -110q5 -4 13 -13q80 -90 119 -166q102 -199 102 -457t-102 -457q-48 -93 -119 -166q-5 -6 -13 -14q-108 -108 -257 -109q-147 0 -256 107q-5 6 -14 16q-142 142 -195 382q-27 118 -27 241zM299 160q0 -210 81 -382 q98 -208 247 -208q99 0 179 101q62 77 100 189q48 140 48 300q0 143 -39 275q-46 154 -133 241q-74 74 -155 74q-99 0 -182 -102q-63 -79 -100 -193q-46 -140 -46 -295z" />
<glyph unicode="1" horiz-adv-x="597" d="M143 909h287l-1 -81l1 -898h-164v816h-122z" />
<glyph unicode="2" horiz-adv-x="1191" d="M193 -70v164h24q154 0 257 102.5t103 241.5q0 123 -106.5 229.5t-262.5 106.5h-15v164h16q103 0 198 -36q101 -38 166 -106q5 -3 13 -14q147 -148 147 -344t-147 -344h483v-164h-852q-2 0 -4 -1h-4z" />
<glyph unicode="3" horiz-adv-x="1077" d="M160 -410h16q334 0 498 164q76 76 75 164q-1 103 -97 186q-76 64 -192 103q-118 39 -245 40q-19 0 -39 -1v164q191 -9 287 86q41 41 41 86q0 98 -161 147q-80 25 -167 25h-16v164l16 1q106 5 226 -40q101 -38 175 -109q7 -5 17 -16q74 -72 73 -172q0 -99 -90 -189 q-32 -33 -48 -41q172 -66 261 -156q123 -123 123 -278q0 -147 -123 -270l-10 -11q-98 -98 -259 -154q-168 -58 -310 -58q-17 0 -35 1l-16 1v163z" />
<glyph unicode="4" horiz-adv-x="856" d="M17 0l98 131l631 794v-1679h-164v754h-565zM328 155h254v316z" />
<glyph unicode="5" horiz-adv-x="1134" d="M193 269v640h524v-163h-360v-316q151 -1 298 -60q152 -61 242 -149q123 -120 123 -279q0 -147 -123 -270q-142 -142 -380 -195q-117 -27 -242 -26h-82v168l82 -4q137 -8 269 32q145 44 233 132q79 79 79 163q0 99 -102 182q-79 64 -191 104q-132 46 -288 42z" />
<glyph unicode="6" horiz-adv-x="1278" d="M160 -8v917h164v-692q122 111 328 111q262 0 409 -147q3 -2 7 -7l5 -3q71 -70 70 -179q0 -118 -76 -182l-6 -6q-148 -148 -410 -148q-121 0 -227 39q-101 39 -174 108q-8 5 -13 12q-35 33 -56 83q-20 47 -21 94zM324 -8q0 -96 163 -147q78 -26 165 -26q199 0 295 97 q38 38 38 76q0 97 -160 147q-80 25 -173 25q-195 0 -287 -92q-41 -41 -41 -80z" />
<glyph unicode="7" horiz-adv-x="798" d="M65 746v163h668v-81l-262 -1553h-158l246 1471h-494z" />
<glyph unicode="8" horiz-adv-x="1249" d="M143 -91q0 271 254 427q-99 100 -98 237q0 142 97 239t239 97q131 0 215 -84q9 -9 13 -14q99 -99 100 -238q0 -138 -99 -237q94 -58 115 -82q139 -151 139 -344q0 -206 -140 -344q-5 -5 -14 -16q-132 -132 -329 -132q-206 0 -338 132q-58 67 -66 80q-30 40 -52 93 q-36 90 -36 186zM307 -91q0 -137 90 -228q98 -99 238 -99q136 0 227 95t92 232q1 71 -22.5 132.5t-67.5 105.5q-99 99 -229 99q-138 0 -238 -99q-90 -90 -90 -238zM463 573q0 -81 41 -122q58 -58 131 -58q62 0 108 45q55 55 56 135q0 74 -49 123.5t-115 49.5q-74 0 -123 -49 t-49 -124z" />
<glyph unicode="9" horiz-adv-x="1191" d="M90 577q1 109 71 179q4 4 11 10q147 147 410 147q122 0 228 -39q89 -33 173 -108q4 -2 14 -12q77 -77 76 -176v-918h-164v692q-124 -110 -327 -110q-259 0 -410 147q-4 4 -13 11q-70 71 -69 177zM248 577q0 -41 39 -79q92 -92 295 -92q197 0 287 91q41 42 40 80 q0 55 -66 103q-36 26 -94 44q-78 25 -167 25q-201 0 -298 -96q-36 -36 -36 -76z" />
<glyph unicode=":" horiz-adv-x="442" d="M149 0v131h148v-131h-148zM149 451v131h148v-131h-148z" />
<glyph unicode=";" horiz-adv-x="442" d="M94 -29l213 213l90 -90l-213 -213zM143 582h148v-131h-147z" />
<glyph unicode="&#x3c;" horiz-adv-x="610" d="M61 881l50 49l336 319l98 -98l-308 -270l308 -270l-98 -99z" />
<glyph unicode="=" horiz-adv-x="827" d="M65 331v132h664l1 -132h-665zM65 705v131h664v-132z" />
<glyph unicode="&#x3e;" horiz-adv-x="610" d="M61 611l308 270l-308 270l99 98l385 -368l-50 -50l-335 -319z" />
<glyph unicode="?" horiz-adv-x="848" d="M160 0v131h147l-1 -131h-146zM168 410v474h66q200 0 302 104q42 43 42 85t-42 86q-101 102 -302 102h-17v132h17q255 0 393 -140q83 -83 81 -180q-2 -179 -222 -271q-84 -35 -187 -44v-348h-131z" />
<glyph unicode="@" horiz-adv-x="2085" d="M86 277q1 108 100 208q130 133 363 191q112 29 218 29q210 0 309 -100l14 -14l156 269h-409v140h650l-61 -107l-536 -926l-119 66l41 73q-174 -74 -352 -73q-210 0 -312 100q-19 19 -36 48q-25 41 -26 96zM229 278q-2 -24 18 -44q63 -62 213 -62q309 0 468 159 q36 36 56 75q18 30 17 55q0 20 -5 31q-5 7 -14 16q-62 61 -215 62q-127 0 -258 -47q-142 -51 -225 -134q-58 -58 -55 -111zM1037 0l61 102l988 1721l123 -69l-439 -754h197v-140h-275l-418 -720h198v-140h-435z" />
<glyph unicode="A" horiz-adv-x="1507" d="M-78 -8l771 1745l839 -1741l-148 -74l-380 791h-586l-348 -787zM483 877h451l-234 477z" />
<glyph unicode="B" horiz-adv-x="1334" d="M119 0v1701l82 -1h410q212 0 355 -144q135 -135 135 -323q0 -88 -34.5 -170t-100.5 -150q-17 -16 -32 -24q231 -85 307 -268q33 -78 33 -158q0 -165 -126 -291q-172 -172 -452 -172h-577zM291 164h405q219 0 336 117q77 77 78 182q0 118 -78 196q-117 119 -335 119h-406 v-614zM291 918h320q146 0 236.5 87t90.5 228q0 126 -86 209q-97 94 -241 94h-320v-618z" />
<glyph unicode="C" horiz-adv-x="1728" d="M123 836q0 241 118.5 449t324.5 331q203 121 441 121q360 0 619 -259l-114 -114q-213 213 -505 213q-282 0 -499 -217q-211 -211 -211 -524q0 -316 211 -525q218 -217 499 -217q287 0 509 222l119 -115q-269 -266 -628 -266q-360 0 -618 258q-266 266 -266 643z" />
<glyph unicode="D" horiz-adv-x="1568" d="M134 82v1618h595q275 0 488 -213q255 -255 255 -639q0 -184 -66 -350t-189 -289q-209 -209 -487 -209h-595zM306 1536l1 -1372h422q210 0 367 154q28 27 55 63q148 196 148 467q0 331 -193 524q-107 107 -243 144q-67 19 -134 19z" />
<glyph unicode="E" horiz-adv-x="1392" d="M119 0v1701l82 -1h737v-160h-647v-574h819v-163h-819v-639h991v-164h-1163z" />
<glyph unicode="F" d="M102 0v82v1618h820v-160l-647 -1v-573h819v-163h-819v-803h-173z" />
<glyph unicode="G" horiz-adv-x="1720" d="M70 831q0 240 119 451.5t322.5 330.5t438.5 119q360 0 619 -257l-115 -115q-209 209 -504 209q-291 0 -499 -208t-208 -530q0 -320 208.5 -528.5t498.5 -208.5q281 0 487 193v487h-487v164h658v-721l-25 -24q-90 -86 -185 -142q-207 -121 -448 -121q-187 0 -360 78 t-296 220q-140 159 -194 366q-30 117 -30 237z" />
<glyph unicode="H" horiz-adv-x="1532" d="M127 0v1701l172 -1v-734h934v735l172 -1l1 -1700h-173v803h-934l1 -803h-173z" />
<glyph unicode="I" horiz-adv-x="593" d="M205 0v1701h196v-1701h-196z" />
<glyph unicode="J" horiz-adv-x="1343" d="M58 520v16h163v-15q0 -167 115 -279q118 -115 282 -115q159 0 270 111q116 115 116 283v1179h180v-1180q0 -235 -164 -393q-77 -75 -189 -122q-102 -42 -213 -42q-232 0 -396 162.5t-164 394.5z" />
<glyph unicode="K" horiz-adv-x="1495" d="M119 0v1701l172 -1v-819l737 876l127 -106l-508 -607l839 -991l-122 -106l-823 971l-250 -300v-618h-172z" />
<glyph unicode="L" horiz-adv-x="1368" d="M131 0v1704h197v-1540h905v-164h-1102z" />
<glyph unicode="M" horiz-adv-x="2326" d="M143 1786l160 -209l897 -1270l1041 1516v-1823h-173v1290l-864 -1273l-69 98l-819 1159v-1274h-172z" />
<glyph unicode="N" horiz-adv-x="1978" d="M134 1814l149 -143l1393 -1405v1435l171 -1v-1835l-147 143l-1393 1405l-1 -1413h-171z" />
<glyph unicode="O" horiz-adv-x="1802" d="M78 831q0 262 126 482q173 303 485 391q99 28 200 28q312 0 540 -229q175 -176 240 -425q32 -123 32 -247q0 -400 -271 -671q-230 -230 -541 -230q-310 0 -541 230q-174 173 -238 423q-32 121 -32 248zM250 831q0 -340 213 -553q192 -192 426 -192q238 0 416 178 q222 222 223 567q0 341 -213 553q-193 193 -426 193q-234 0 -426 -193q-212 -212 -213 -553z" />
<glyph unicode="P" horiz-adv-x="1278" d="M106 0v1701l82 -1h451q234 0 393 -160q139 -140 139 -328q0 -192 -139 -331q-160 -160 -393 -160h-361l1 -721h-173zM278 884h361q165 0 268 104q93 93 93 224q0 135 -87 222q-102 102 -275 102l-360 -1v-651z" />
<glyph unicode="Q" horiz-adv-x="1831" d="M135 836q0 400 270 670q232 231 541 231q306 0 540 -234q272 -271 271 -667q0 -401 -270 -672q-184 -184 -458 -217v-119h-165v119q-275 33 -458 217q-271 272 -271 672zM307 823q0 -161 55 -306q58 -152 158 -251q155 -154 344 -184v248h165l-1 -249q190 30 334 175 q223 223 223 564q0 342 -213 556q-192 193 -426 193q-232 0 -426 -193q-213 -212 -213 -553z" />
<glyph unicode="R" horiz-adv-x="1437" d="M127 0v1704h491q205 0 348.5 -144.5t143.5 -348.5q0 -98 -37 -185q-33 -79 -107 -157q-2 -2 -12 -13q-68 -68 -164 -102l697 -693l-124 -131l-786 791h-278l1 -721h-173zM299 884h319q136 0 228 96t92 232q0 140 -89.5 234t-230.5 94h-319v-656z" />
<glyph unicode="S" horiz-adv-x="1360" d="M99 168l106 123l86 -74v-4q117 -104 311 -122q7 0 21 -1.5t21 -1.5q163 0 294 84q38 24 64 50q74 74 75 167v9q0 127 -80 207q-9 9 -14 13q-74 68 -319 123q-281 63 -394 164q-5 7 -11 11q-144 147 -144 354q0 140 119 259q48 48 106 85q162 103 375 105h5q147 0 279 -54 q104 -42 180 -112l-110 -123q-116 112 -308 123l-18 1h-22q-171 0 -295 -76q-33 -20 -62 -49q-77 -77 -77 -171q0 -137 80 -218q4 -4 14 -12q83 -75 319 -127q286 -62 394 -164q11 -11 19 -18q136 -136 136 -344q0 -141 -117 -258q-42 -42 -108 -84q-167 -105 -375 -105 q-30 0 -59 2q-249 20 -406 164z" />
<glyph unicode="T" horiz-adv-x="1597" d="M33 1548v156h1474v-156h-626v-1548h-197v1548h-651z" />
<glyph unicode="U" horiz-adv-x="1790" d="M151 782l1 918l172 1v-919q0 -319 176 -495q160 -160 393 -160q237 0 391 154q182 182 182 501v918h172v-918q0 -376 -233 -610q-137 -137 -324 -186q-86 -23 -180 -23h-8q-303 0 -513 209q-229 229 -229 610z" />
<glyph unicode="V" horiz-adv-x="1474" d="M-28 1708l175 57l558 -1462l635 1467l155 -66l-799 -1819z" />
<glyph unicode="W" horiz-adv-x="2420" d="M0 1701l160 64l639 -1466l311 790l-254 615l164 60l176 -462l180 463l160 -61l-250 -615l308 -790l638 1465l160 -64l-807 -1819l-389 991l-390 -991z" />
<glyph unicode="X" horiz-adv-x="1515" d="M49 4l606 897l-520 782l146 90l471 -731l487 731l145 -89l-532 -783l598 -896l-145 -91l-551 848l-559 -848z" />
<glyph unicode="Y" horiz-adv-x="1396" d="M20 1701l164 64l521 -1052l524 1060l155 -73l-889 -1774l-164 74l283 541z" />
<glyph unicode="Z" horiz-adv-x="1658" d="M41 0l1167 1535h-1056v165h1401l-1168 -1536h1196l1 -164h-1541z" />
<glyph unicode="[" horiz-adv-x="556" d="M90 0v1790h385v-135h-238v-1515h238v-140h-385z" />
<glyph unicode="\" horiz-adv-x="958" d="M-8 1425l123 70l844 -1491l-111 -57z" />
<glyph unicode="]" horiz-adv-x="556" d="M90 0v140h238v1514l-238 1v135h385v-1790h-385z" />
<glyph unicode="^" horiz-adv-x="897" d="M78 1409l369 385l48 -49l324 -336l-102 -94l-270 301l-271 -302z" />
<glyph unicode="_" horiz-adv-x="1068" d="M0 -151l1073 -1v-131h-1073v132z" />
<glyph unicode="`" horiz-adv-x="925" d="M65 2138l58 122l725 -355l-45 -78z" />
<glyph unicode="a" horiz-adv-x="1155" d="M49 295q0 105 85 190q146 146 415 146q218 0 360 -102v258h-462v138h597v-999h-135v139q-142 -102 -360 -102q-270 0 -414 143q-86 85 -86 189zM193 295q0 -49 44 -100q110 -104 320 -105h4q213 0 317 103q47 46 47 102q0 54 -40 94q-8 8 -13 12q-102 102 -315 103h-4 q-199 0 -316 -111q-44 -51 -44 -98z" />
<glyph unicode="b" horiz-adv-x="1134" d="M91 -74v1860h134v-983q156 156 365 156q204 0 352 -148q143 -143 143 -349q-1 -212 -143 -356q-142 -142 -352 -143q-213 0 -356 143q-2 2 -8 6q0 1 -1 1v2v-189h-134zM217 459q0 -149 114 -263q98 -97 256 -97h3q148 0 250 105.5t102 254.5q0 156 -99 254 q-111 110 -253 110q-157 0 -259 -102q-4 -5 -11 -10q-103 -103 -103 -252z" />
<glyph unicode="c" horiz-adv-x="974" d="M78 454q0 206 145 351t351 145q201 0 348 -139l-94 -98q-103 103 -255 103q-149 0 -249 -99q-3 -4 -11 -10q-92 -92 -92 -253q0 -155 99 -257.5t253 -102.5q152 0 258 106l98 -98q-149 -143 -356 -143q-209 0 -352 143.5t-143 351.5z" />
<glyph unicode="d" horiz-adv-x="1146" d="M58 459q0 208 146 354t353 146q113 0 197 -40q61 -30 164 -116v983h139v-1860h-139v189l-9 -9q-143 -143 -352 -143q-210 0 -352 143q-147 149 -147 353zM205 459q0 -162 95 -260q96 -100 257 -100q150 0 259 106t109 254q0 71 -30 143q-32 77 -84 119q-102 102 -254 102 t-254 -102l-10 -10q-88 -88 -88 -252z" />
<glyph unicode="e" horiz-adv-x="1073" d="M94 0v925h602v-135h-454v-258h617v-135h-617v-257h782l1 -140h-931z" />
<glyph unicode="f" horiz-adv-x="638" d="M49 790v135h188v861h394v-135h-242v-726h193v-135h-193v-790h-152v790h-188z" />
<glyph unicode="g" horiz-adv-x="1134" d="M-196 -471q0 149 222 247q199 89 474 100v92q-171 19 -287 134q-143 143 -143 353q0 207 147 353.5t353 146.5q168 0 299 -99l53 53l98 -98l-54 -53q99 -127 99 -304q0 -211 -143 -352q-117 -116 -287 -135v-90q300 -20 479 -100q221 -99 221 -249q0 -158 -239 -261 q-217 -94 -526 -94q-311 0 -526 93q-240 104 -240 263zM-53 -472q0 -27 31 -58q83 -83 281 -125q152 -33 311 -33q279 0 471 83q86 37 125 76q30 31 30 58t-31 59q-74 76 -250 120q-139 34 -280 38v-118h-135v120q-140 -2 -274 -36q-169 -42 -245 -119q-34 -34 -34 -65z M213 454q1 -164 103 -266q64 -64 184 -86v62h135v-62q111 24 186 101q101 101 101 251q0 130 -53 205l-46 -45l-98 99l45 45q-86 57 -196 57h-4q-162 -1 -259.5 -99.5t-97.5 -261.5z" />
<glyph unicode="h" horiz-adv-x="1175" d="M99 0v1790h138v-983q155 155 361 156q206 0 353 -147.5t147 -352.5v-463h-148v463q0 163 -94 263q-96 102 -258 102q-158 0 -255 -103.5t-97 -261.5v-463h-147z" />
<glyph unicode="i" horiz-adv-x="462" d="M154 925h155v-925h-154zM154 1204v139h155v-139h-155z" />
<glyph unicode="j" horiz-adv-x="462" d="M-82 -659h242v1584h156v-1720h-397zM160 1200v140h156v-140h-156z" />
<glyph unicode="k" horiz-adv-x="921" d="M119 0v1790h147v-1241l386 410l102 -99l-357 -368l609 -451l-94 -111l-609 463l-37 -41v-352h-147z" />
<glyph unicode="l" horiz-adv-x="552" d="M94 0v1790h148v-1650h250v-140h-398z" />
<glyph unicode="m" horiz-adv-x="1658" d="M70 0v963l766 -836l753 839l-1 -966h-146v611l-602 -685l-50 57l-573 631v-614h-147z" />
<glyph unicode="n" horiz-adv-x="1281" d="M70 0v963l999 -758v725h143v-1000l-118 87l-877 671v-688h-147z" />
<glyph unicode="o" horiz-adv-x="1134" d="M91 454q0 208 146 354t354 146q207 0 350.5 -143t143.5 -357q0 -213 -143 -352q-147 -143 -352 -143t-356 143q-68 64 -107 163q-36 93 -36 189zM234 454q0 -151 102 -253q115 -115 254 -115q140 0 242 102q110 110 110 266q0 160 -99 259q-110 110 -253 110 q-144 0 -247 -103l-7 -7q-102 -103 -102 -259z" />
<glyph unicode="p" horiz-adv-x="1146" d="M98 954h139v-147q155 155 361 156q206 0 353 -147.5t147 -352.5q0 -150 -85 -276t-223 -182q-91 -37 -192 -38q-209 0 -352 144q-2 2 -7 4q-2 2 -2 4v-909h-138zM229 459q0 -66 29 -137q31 -77 82 -126q97 -94 255 -94h3q149 1 255 107t106 254q0 149 -94 242 q-9 9 -13 12q-111 111 -251 111h-3q-156 -1 -258 -103q-4 -4 -12 -11q-99 -99 -99 -255z" />
<glyph unicode="q" horiz-adv-x="1163" d="M78 454q0 208 146 354t354 146q100 0 191 -38q76 -32 161 -110q2 -2 8 -7v258h139v-1847h-139v901l-9 -9q-142 -143 -352 -143q-209 0 -352 143q-147 147 -147 352zM319 193q102 -99 258 -99q158 0 254 93q116 112 116 267q0 147 -102 250q-9 9 -14 13q-98 98 -251 98h-3 q-154 0 -258 -104q-91 -91 -91 -253q0 -178 91 -265z" />
<glyph unicode="r" horiz-adv-x="651" d="M81 0l1 963h147v-208q9 11 30 33q138 140 331 140h16v-132h-15q-11 1 -22 1q-143 0 -241 -98l-9 -9q-90 -90 -90 -217l1 -473h-149z" />
<glyph unicode="s" horiz-adv-x="692" d="M81 99l103 89l33 -36q9 -11 14 -15q33 -33 80 -38q8 0 17 -1q47 1 90 36q9 8 14 13q39 39 39 87v16q0 50 -29 86q-33 32 -98 49q-120 32 -174 87q-4 4 -18 20q-60 67 -62 175q0 5 1 26q5 102 78 175q11 11 24 21q79 65 176 65q17 0 29 -4q95 -5 170 -79q6 -6 18 -19 l-107 -86q-46 45 -98 45q-4 5 -12 4q-49 0 -91 -32q-49 -49 -53 -99v-17q0 -57 33 -89q4 -5 12 -14q26 -26 87 -40q116 -25 175 -84q6 -6 13 -14q66 -86 66 -176v-29q-13 -119 -107 -197q-74 -61 -180 -61h-25q-102 11 -168 76q-11 11 -20 22z" />
<glyph unicode="t" horiz-adv-x="725" d="M32 795v135h243v860h147v-860l250 -1v-133l-250 -1v-655h250l-1 -140h-396v795h-243z" />
<glyph unicode="u" horiz-adv-x="1175" d="M88 459v466h148v-466q0 -162 99 -258q105 -102 253 -102q149 0 250.5 105t101.5 255v466h148v-466q0 -213 -147 -357q-144 -139 -353 -139t-353 139q-68 66 -108 165q-39 94 -39 192z" />
<glyph unicode="v" horiz-adv-x="958" d="M0 889l137 66l371 -734l379 733l129 -65l-508 -967l-61 115z" />
<glyph unicode="w" horiz-adv-x="1519" d="M0 889l131 65l381 -737l201 389l-156 283l136 65l97 -196l99 196l127 -65l-147 -283l190 -391l395 739l127 -65l-512 -967l-279 553l-286 -553z" />
<glyph unicode="x" horiz-adv-x="970" d="M-4 17l376 454l-319 398l115 85l295 -381l303 381l115 -85l-332 -398l376 -454l-120 -87l-342 442l-352 -442z" />
<glyph unicode="y" horiz-adv-x="962" d="M-29 869l107 85l639 -786v786h147v-1744h-147v737z" />
<glyph unicode="z" horiz-adv-x="1179" d="M20 0l115 115l643 672h-631v138h963l-758 -785h721l1 -140h-1054z" />
<glyph unicode="{" horiz-adv-x="684" d="M61 893q0 45 20 78l427 729l115 -65q-31 -64 -248 -428l-182 -306q-1 -4 0 -17l512 -814l-111 -70q-58 91 -182 288l-330 531q-20 32 -21 74z" />
<glyph unicode="|" horiz-adv-x="593" d="M213 -754v2540h180v-2540h-180z" />
<glyph unicode="}" horiz-adv-x="684" d="M-17 70l512 831q-74 125 -222 376l-150 254q-42 73 -58 104l116 65l425 -729q20 -34 21 -78q1 -41 -21 -74q-6 -9 -123 -198l-202 -326q-122 -196 -187 -295z" />
<glyph unicode="~" horiz-adv-x="1425" d="M4 1814l484 394l41 -29l413 -283l401 333l87 -107l-479 -393l-46 28l-413 279l-401 -328z" />
<glyph unicode="&#xa1;" horiz-adv-x="442" d="M184 4v1290h132v-1290h-132zM184 1573v131h132v-131h-132z" />
<glyph unicode="&#xa2;" horiz-adv-x="1044" d="M82 602q0 199 148 348q119 119 278 144v111h139v-107q171 -20 291 -139l-95 -99q-85 79 -196 99v-713q112 18 196 102l99 -98q-123 -123 -295 -144v-106h-139v111q-157 24 -271 139q-155 157 -155 352zM229 602q0 -147 107 -254q74 -74 172 -98v704q-98 -24 -172 -98 q-107 -106 -107 -254z" />
<glyph unicode="&#xa3;" horiz-adv-x="1360" d="M91 -53l69 143l147 -86q31 -18 86 -18q54 0 86 18l209 119q48 27 140 37v17q0 127 -87 214q-10 10 -16 15l-221 241h-262l1 135h138l-111 123q-5 7 -11 11q-144 147 -144 354q14 153 126 266q42 42 99 78q163 103 375 105q150 1 284 -54q104 -42 180 -112l-110 -123 q-116 112 -308 123l-18 1h-22q-168 0 -295 -79q-36 -23 -69 -56q-77 -77 -79 -161q-2 -126 88 -216q12 -12 15 -14l225 -246h275v-135h-152l107 -118q3 -3 9 -10l5 -5q141 -140 141 -338q0 -33 -4 -45l13 -7l266 -153l-66 -139l-158 90q-60 34 -100 58l-13 3q-33 20 -86 19 q-55 -1 -85 -19l-61 -36l-148 -82q-67 -37 -156 -37t-156 37z" />
<glyph unicode="&#xa4;" horiz-adv-x="1146" d="M81 901q-1 197 140 345l-49 61l106 86l49 -62q116 70 255 70q138 0 254 -70l53 62l106 -86l-49 -62q136 -149 136 -344q0 -193 -136 -344l49 -57l-106 -90l-53 65q-122 -74 -254 -74q-130 0 -254 74l-50 -65l-106 89l49 58q-139 146 -140 344zM221 902q0 -128 86 -235 q5 -5 13 -14l5 -3l3 -3q7 -8 12 -12q23 -23 78 -53q74 -41 164 -41t167 41q59 31 101 75q5 5 6 10q86 100 86 234q0 140 -86 238q-16 18 -16 20q-37 33 -90 66q-80 36 -168 36q-96 0 -163 -36q-71 -38 -99 -74q-6 -9 -13 -12q-86 -104 -86 -237z" />
<glyph unicode="&#xa5;" horiz-adv-x="1413" d="M-49 1101v132h311l-53 102h-258v131h189l-120 235l156 63l529 -1051l532 1060l147 -73l-118 -234h196v-131h-262l-49 -102h311v-131h-377l-590 -1176l-164 74l287 541l-290 561z" />
<glyph unicode="&#xa7;" horiz-adv-x="1360" d="M99 -676l105 123l87 -74v-4q118 -105 311 -122q25 -2 41 -2q167 0 295 83q39 26 66 52q73 73 81 166q0 128 -85 213q-5 5 -18 16q-76 67 -318 123l-75 17q-71 15 -114 32l-33 12q-42 16 -92 44t-80 58l-6 7q-4 4 -11 9q-68 66 -106 148q-34 74 -35 158q1 14 3 43 q14 152 126 266q41 41 99 78q47 30 82 45q-51 15 -88.5 43.5t-74.5 57.5q-144 147 -144 354q14 153 126 266q42 42 99 78q163 103 375 105q150 1 284 -54q104 -42 180 -112l-110 -123q-116 112 -308 123l-18 1h-22q-168 0 -295 -79q-36 -23 -69 -56q-77 -77 -79 -161 q-2 -126 88 -216q12 -12 15 -14q84 -77 319 -127q55 -11 177 -45q140 -46 217 -119q33 -31 57 -61q105 -132 98 -304q-6 -142 -126 -262q-45 -46 -98 -77t-87 -45q90 -39 156 -94q4 -2 9 -8l10 -10q137 -137 136 -348q-14 -150 -125 -261q-39 -39 -100 -77 q-169 -105 -375 -106q-24 0 -59 4q-250 21 -406 163zM278 413q0 -127 85 -213q2 -2 18 -16q64 -57 176 -90q8 0 23 -1.5t22 -1.5t21 -1.5t21 -1.5q165 0 294 84q39 25 66 52q73 73 81 165q-1 129 -86 215q-7 7 -16 14q-66 55 -168 87q2 0 -75 5q-11 1 -19 1q-166 0 -295 -80 q-34 -21 -64 -51q-74 -74 -84 -167z" />
<glyph unicode="&#xa8;" horiz-adv-x="798" d="M184 1790v131h132v-131h-132zM541 1790v131l131 1v-132h-131z" />
<glyph unicode="&#xa9;" horiz-adv-x="1703" d="M145 922q0 135 109 245q39 39 106 82q204 132 497 132q243 0 439 -100q181 -91 241 -227q29 -65 29 -132q0 -139 -111 -250q-133 -133 -365 -184q-111 -25 -233 -25q-250 0 -443 97q-96 49 -160 112q-109 109 -109 250zM243 922q0 -112 104 -201q82 -71 207 -113 q141 -47 303 -47q146 0 281 42q155 48 246 138q83 83 83 181q0 95 -82 180q-49 51 -137 95q-174 85 -391 85q-221 0 -394 -84q-86 -42 -138 -97q-82 -85 -82 -179zM603 918q0 109 74.5 183.5t183.5 74.5q105 0 180 -74l-69 -70q-44 46 -111 45q-66 0 -113 -46.5t-47 -112.5 q0 -68 46 -116t114 -48q65 0 111 45l73 -70q-74 -74 -184 -74t-184 76.5t-74 186.5z" />
<glyph unicode="&#xab;" horiz-adv-x="1044" d="M61 442l50 50l336 318l98 -97l-308 -271l308 -270l-98 -98zM495 442l50 50l336 319l98 -98l-307 -271l306 -270l-97 -98z" />
<glyph unicode="&#xac;" horiz-adv-x="1969" d="M82 508v139h1790v-70l1 -319l-141 -1v251h-1650z" />
<glyph unicode="&#xad;" horiz-adv-x="700" d="M140 516v131h409v-131h-409z" />
<glyph unicode="&#xae;" horiz-adv-x="1711" d="M143 918q0 137 113 250q45 45 104 81q202 127 496 127q244 0 440 -97q181 -91 241 -228q28 -64 28 -133q0 -140 -111 -251q-131 -131 -365 -183q-111 -25 -233 -25q-250 0 -444 97q-94 48 -158 111q-111 111 -111 251zM242 918q0 -96 82 -181q51 -52 140 -95 q172 -85 392 -85q146 0 281 42q155 49 245 140q84 85 84 179q0 168 -220 275q-173 85 -390 85q-349 0 -532 -180q-82 -80 -82 -180zM672 643v521h168q71 0 119 -49t48 -120q1 -70 -48 -118q-17 -17 -25 -21l176 -176l-69 -69l-218 217h-53v-185h-98zM770 925h70 q28 0 48.5 21t20.5 49q0 29 -20 49.5t-49 20.5h-70v-140z" />
<glyph unicode="&#xb0;" horiz-adv-x="417" d="M37 1094q0 75 50.5 125.5t125.5 50.5q74 0 125 -51t51 -125q0 -70 -53 -123q-49 -49 -123 -49q-77 -1 -126.5 47.5t-49.5 124.5zM119 1094q0 -33 24 -64q24 -24 70 -24q38 0 66 25t28 63q0 39 -27 65.5t-67 26.5t-70 -25q-24 -30 -24 -67z" />
<glyph unicode="&#xb3;" horiz-adv-x="252" />
<glyph unicode="&#xb4;" horiz-adv-x="925" d="M65 1905l725 356l58 -123l-737 -311z" />
<glyph unicode="&#xb6;" horiz-adv-x="1462" d="M164 1032q0 105 94 190q75 68 190 109q126 45 273 45q104 0 225 -28v82h111v-1430h-111v717q-101 -29 -225 -29q-308 0 -474 165q-83 82 -83 179zM1176 0v1430h110v-1430h-110z" />
<glyph unicode="&#xb8;" horiz-adv-x="716" d="M111 -631h90q180 0 273 92q38 37 38 76q0 36 -37 74q-90 90 -274 90h-70v299h139v-164q93 -9 172 -42q205 -86 205 -257q0 -185 -234 -267q-99 -36 -212 -36h-90v135z" />
<glyph unicode="&#xbb;" horiz-adv-x="1044" d="M61 172l308 270l-308 271l99 98l385 -369l-50 -49l-335 -319zM495 172l308 270l-308 271l99 98l385 -369l-49 -49l-336 -319z" />
<glyph unicode="&#xbf;" horiz-adv-x="848" d="M168 319q0 98 82 181q116 116 327 135l1 348h130v-475h-65q-199 0 -302 -103q-42 -42 -42 -86q0 -105 171 -161q80 -27 173 -27h16l-1 -131h-14q-254 0 -394 140q-83 83 -82 179zM577 1261v132h131v-132h-131z" />
<glyph unicode="&#xc0;" horiz-adv-x="1507" d="M-78 -8l771 1745l839 -1741l-148 -74l-380 791h-586l-348 -787zM299 2138l58 122l725 -355l-46 -78zM483 877h451l-234 477z" />
<glyph unicode="&#xc1;" horiz-adv-x="1507" d="M-78 -8l771 1745l839 -1741l-148 -74l-380 791h-586l-348 -787zM259 1905l725 356l57 -123l-737 -311zM483 877h451l-234 477z" />
<glyph unicode="&#xc2;" horiz-adv-x="1507" d="M-78 -8l771 1745l839 -1741l-148 -74l-380 791h-586l-348 -787zM323 1905l369 389l49 -53l325 -336l-103 -76l-271 301l-270 -303zM483 877h451l-234 477z" />
<glyph unicode="&#xc3;" horiz-adv-x="1507" d="M-78 -8l771 1745l839 -1741l-148 -74l-380 791h-586l-348 -787zM309 1946l267 184l237 -188l199 143l67 -90l-250 -184l-245 196l-212 -149zM483 877h451l-234 477z" />
<glyph unicode="&#xc4;" horiz-adv-x="1507" d="M-78 -8l771 1745l839 -1741l-148 -74l-380 791h-586l-348 -787zM448 1790v131h132v-131h-132zM483 877h451l-234 477zM805 1790v131l131 1v-132h-131z" />
<glyph unicode="&#xc5;" horiz-adv-x="1507" d="M-78 -8l771 1745l839 -1741l-148 -74l-380 791h-586l-348 -787zM414 1974q0 63 48 111q77 77 218 78q66 0 126 -22q141 -53 141 -167q0 -108 -141 -161q-60 -23 -126 -23q-137 0 -220 82q-46 44 -46 102zM483 877h451l-234 477zM517 1974q0 -19 16 -41q53 -53 147 -53 q93 0 142 49q22 22 22 45q0 24 -16 45q-53 53 -148 53q-93 0 -147 -53q-17 -22 -16 -45z" />
<glyph unicode="&#xc6;" horiz-adv-x="2686" d="M-111 53l1426 1565v82l86 1l77 85v-86l656 1v-165h-656v-623l824 -1v-162l-824 -1v-585h996l1 -164h-1161l1 82v667h-566l-737 -802zM901 912l414 1v451z" />
<glyph unicode="&#xc7;" horiz-adv-x="1728" d="M123 836q0 241 118 449t325 331q203 121 441 121q360 0 619 -259l-114 -114q-213 213 -505 213q-282 0 -499 -217q-211 -211 -211 -524q0 -316 211 -525q218 -217 499 -217q287 0 509 222l119 -115q-269 -266 -628 -266q-360 0 -618 258q-266 266 -266 643zM879 -631h90 q180 0 273 92q38 37 38 76q0 36 -37 74q-90 90 -274 90h-69v299h138v-164q93 -9 173 -42q204 -86 204 -257q0 -185 -233 -267q-99 -36 -213 -36h-90v135z" />
<glyph unicode="&#xc8;" horiz-adv-x="1392" d="M119 0v1701l82 -1h737v-160h-647v-574h819v-163h-819v-639h991v-164h-1163zM158 2138l57 122l726 -355l-46 -78z" />
<glyph unicode="&#xc9;" horiz-adv-x="1392" d="M115 1905l725 356l57 -123l-737 -311zM119 0v1701l82 -1h737v-160h-647v-574h819v-163h-819v-639h991v-164h-1163z" />
<glyph unicode="&#xca;" horiz-adv-x="1392" d="M119 0v1701l82 -1h737v-160h-647v-574h819v-163h-819v-639h991v-164h-1163zM186 1905l368 389l50 -53l324 -336l-103 -76l-271 301l-270 -303z" />
<glyph unicode="&#xcb;" horiz-adv-x="1392" d="M119 0v1701l82 -1h737v-160h-647v-574h819v-163h-819v-639h991v-164h-1163zM277 1790v131h131v-131h-131zM633 1790v131l132 1v-132h-132z" />
<glyph unicode="&#xcc;" horiz-adv-x="1138" d="M-196 -938q0 210 104 389q51 86 119 155q196 196 473 218v139q-174 27 -287 139q-144 144 -143 353t146.5 354.5t353.5 145.5q164 0 299 -99l53 53l94 -102l-53 -49q102 -133 102 -304q0 -210 -143 -352q-115 -114 -287 -139v-139q127 -8 247 -63q108 -50 213 -148l6 -6 l4 -4l15 -15q137 -137 184 -331q24 -95 23 -195q0 -315 -209 -524q-86 -86 -173 -137q-175 -102 -375 -102q-321 0 -546 226q-221 222 -220 537zM-61 -938q0 -260 183.5 -441t447.5 -181q189 0 344.5 104t229.5 278q48 115 48 240q0 263 -180 443q-161 161 -377 179v-61 l-135 1v60q-215 -18 -377 -179q-184 -184 -184 -443zM204 454q0 -146 107 -254q79 -80 189 -98v62h135v-62q128 24 210.5 123.5t83.5 228.5q1 116 -65 205l-41 -45l-102 94l49 50q-97 58 -200 57q-153 0 -270 -116q-96 -96 -96 -245z" />
<glyph unicode="&#xcd;" horiz-adv-x="593" d="M-117 1905l725 356l58 -123l-737 -311zM205 0v1701h196v-1701h-196z" />
<glyph unicode="&#xce;" horiz-adv-x="593" d="M-66 1905l369 389l49 -53l325 -336l-104 -76l-270 301l-270 -303zM205 0v1701h196v-1701h-196z" />
<glyph unicode="&#xcf;" horiz-adv-x="593" d="M47 1790v131h131v-131h-131zM205 0v1701h196v-1701h-196zM404 1790v131l131 1v-132h-131z" />
<glyph unicode="&#xd1;" horiz-adv-x="1978" d="M134 1814l149 -143l1393 -1405v1435l171 -1v-1835l-147 143l-1393 1405l-1 -1413h-171zM593 1946l266 184l238 -188l199 143l67 -90l-250 -184l-245 196l-212 -149z" />
<glyph unicode="&#xd2;" horiz-adv-x="1802" d="M78 831q0 262 126 482q173 303 485 391q99 28 200 28q312 0 540 -229q175 -176 240 -425q32 -123 32 -247q0 -400 -271 -671q-230 -230 -541 -230q-310 0 -541 230q-174 173 -238 423q-32 121 -32 248zM250 831q0 -340 213 -553q192 -192 426 -192q238 0 416 178 q222 222 223 567q0 341 -213 553q-193 193 -426 193q-234 0 -426 -193q-212 -212 -213 -553zM487 2138l58 122l725 -355l-46 -78z" />
<glyph unicode="&#xd3;" horiz-adv-x="1802" d="M78 831q0 262 126 482q173 303 485 391q99 28 200 28q312 0 540 -229q175 -176 240 -425q32 -123 32 -247q0 -400 -271 -671q-230 -230 -541 -230q-310 0 -541 230q-174 173 -238 423q-32 121 -32 248zM250 831q0 -340 213 -553q192 -192 426 -192q238 0 416 178 q222 222 223 567q0 341 -213 553q-193 193 -426 193q-234 0 -426 -193q-212 -212 -213 -553zM417 1905l725 356l58 -123l-737 -311z" />
<glyph unicode="&#xd4;" horiz-adv-x="1802" d="M78 831q0 262 126 482q173 303 485 391q99 28 200 28q312 0 540 -229q175 -176 240 -425q32 -123 32 -247q0 -400 -271 -671q-230 -230 -541 -230q-310 0 -541 230q-174 173 -238 423q-32 121 -32 248zM250 831q0 -340 213 -553q192 -192 426 -192q238 0 416 178 q222 222 223 567q0 341 -213 553q-193 193 -426 193q-234 0 -426 -193q-212 -212 -213 -553zM499 1905l369 389l49 -53l325 -336l-103 -76l-271 301l-270 -303z" />
<glyph unicode="&#xd5;" horiz-adv-x="1802" d="M78 831q0 262 126 482q173 303 485 391q99 28 200 28q312 0 540 -229q175 -176 240 -425q32 -123 32 -247q0 -400 -271 -671q-230 -230 -541 -230q-310 0 -541 230q-174 173 -238 423q-32 121 -32 248zM250 831q0 -340 213 -553q192 -192 426 -192q238 0 416 178 q222 222 223 567q0 341 -213 553q-193 193 -426 193q-234 0 -426 -193q-212 -212 -213 -553zM465 1946l266 184l238 -188l198 143l68 -90l-250 -184l-245 196l-212 -149z" />
<glyph unicode="&#xd6;" horiz-adv-x="1802" d="M78 831q0 262 126 482q173 303 485 391q99 28 200 28q312 0 540 -229q175 -176 240 -425q32 -123 32 -247q0 -400 -271 -671q-230 -230 -541 -230q-310 0 -541 230q-174 173 -238 423q-32 121 -32 248zM250 831q0 -340 213 -553q192 -192 426 -192q238 0 416 178 q222 222 223 567q0 341 -213 553q-193 193 -426 193q-234 0 -426 -193q-212 -212 -213 -553zM630 1790v131h132v-131h-132zM987 1790v131l131 1v-132h-131z" />
<glyph unicode="&#xd8;" horiz-adv-x="1802" d="M82 828q0 262 126 481q144 250 393 359q139 61 292 61q184 0 361 -99l69 127l148 -81l-82 -140q29 -29 45 -37q175 -175 239 -423q31 -121 31 -248q0 -399 -270 -668q-231 -230 -541 -230q-204 0 -361 90l-65 -111l-148 79l74 131l-41 41q-270 270 -270 668zM247 828 q0 -332 221 -553q2 -2 7 -13l696 1229q-137 74 -278 74q-241 0 -425 -184q-221 -223 -221 -553zM611 168q119 -74 282 -74q243 0 427 184q220 220 220 550q0 332 -221 553q-6 7 -12 12z" />
<glyph unicode="&#xd9;" horiz-adv-x="1790" d="M151 782l1 918l172 1v-919q0 -319 176 -495q160 -160 393 -160q237 0 391 154q182 182 182 501v918h172v-918q0 -376 -233 -610q-137 -137 -324 -186q-90 -24 -188 -23q-303 0 -513 209q-229 229 -229 610zM507 2138l58 122l725 -355l-45 -78z" />
<glyph unicode="&#xda;" horiz-adv-x="1790" d="M151 782l1 918l172 1v-919q0 -319 176 -495q160 -160 393 -160q237 0 391 154q182 182 182 501v918h172v-918q0 -376 -233 -610q-137 -137 -324 -186q-90 -24 -188 -23q-303 0 -513 209q-229 229 -229 610zM475 1905l725 356l58 -123l-738 -311z" />
<glyph unicode="&#xdb;" horiz-adv-x="1790" d="M151 782l1 918l172 1v-919q0 -319 176 -495q160 -160 393 -160q237 0 391 154q182 182 182 501v918h172v-918q0 -376 -233 -610q-137 -137 -324 -186q-90 -24 -188 -23q-303 0 -513 209q-229 229 -229 610zM530 1905l369 389l49 -53l325 -336l-103 -76l-271 301 l-270 -303z" />
<glyph unicode="&#xdc;" horiz-adv-x="1790" d="M151 782l1 918l172 1v-919q0 -319 176 -495q160 -160 393 -160q237 0 391 154q182 182 182 501v918h172v-918q0 -376 -233 -610q-137 -137 -324 -186q-90 -24 -188 -23q-303 0 -513 209q-229 229 -229 610zM649 1790v131h131v-131h-131zM1005 1790v131l131 1v-132h-131z " />
<glyph unicode="&#xdf;" horiz-adv-x="1360" d="M81 99l103 89l33 -36q9 -11 14 -15q33 -33 80 -38q8 0 17 -1q47 1 90 36q9 8 14 13q39 39 39 87v16q0 50 -29 86q-33 32 -98 49q-120 32 -174 87q-4 4 -18 20q-60 67 -62 175q0 5 1 26q5 102 78 175q11 11 24 21q79 65 176 65q17 0 29 -4q95 -5 170 -79q6 -6 18 -19 l-107 -86q-46 45 -98 45q-4 5 -12 4q-49 0 -91 -32q-49 -49 -53 -99v-17q0 -57 33 -89q4 -5 12 -14q26 -26 87 -40q116 -25 175 -84q6 -6 13 -14q66 -86 66 -176v-29q-13 -119 -107 -197q-74 -61 -180 -61h-25q-102 11 -168 76q-11 11 -20 22zM717 99l102 89l34 -36 q5 -5 13 -16q32 -33 80 -37h17q47 0 90 35q8 7 14 13q39 39 39 87v16q0 51 -29 86q-33 33 -98 49q-121 31 -176 88q-78 80 -78 194v26q0 96 78 174q6 6 25 22q80 65 176 65q17 0 28 -4q97 -5 171 -79q7 -7 17 -19l-106 -86q-45 44 -98 45q-3 4 -12 5q-48 0 -92 -34 q-48 -48 -52 -98v-17q0 -57 33 -90q4 -4 10 -12q29 -29 88 -41q105 -21 182 -90q4 -3 6 -8q66 -86 66 -176q1 -4 1 -12v-17q-14 -119 -107 -197q-74 -61 -180 -61h-25q-104 11 -169 77q-14 14 -19 21z" />
<glyph unicode="&#xe0;" d="M49 295q0 105 85 190q146 146 415 146q218 0 360 -102v258h-462v138h597v-999h-135v139q-142 -102 -360 -102q-270 0 -414 143q-86 85 -86 189zM193 295q0 -49 44 -100q110 -104 320 -105q216 -1 321 103q47 46 47 102q0 54 -40 94q-8 8 -13 12q-102 102 -315 103 q-202 1 -320 -111q-44 -51 -44 -98zM258 1436l58 122l725 -356l-46 -78z" />
<glyph unicode="&#xe1;" d="M49 295q0 105 85 190q146 146 415 146q218 0 360 -102v258h-462v138h597v-999h-135v139q-142 -102 -360 -102q-270 0 -414 143q-86 85 -86 189zM193 295q0 -49 44 -100q110 -104 320 -105q216 -1 321 103q47 46 47 102q0 54 -40 94q-8 8 -13 12q-102 102 -315 103 q-202 1 -320 -111q-44 -51 -44 -98zM259 1198l725 356l57 -123l-737 -311z" />
<glyph unicode="&#xe2;" d="M49 295q0 105 85 190q146 146 415 146q218 0 360 -102v258h-462v138h597v-999h-135v139q-142 -102 -360 -102q-270 0 -414 143q-86 85 -86 189zM193 295q0 -49 44 -100q110 -104 320 -105q216 -1 321 103q47 46 47 102q0 54 -40 94q-8 8 -13 12q-102 102 -315 103 q-202 1 -320 -111q-44 -51 -44 -98zM289 1200l369 389l49 -53l325 -336l-104 -76l-270 301l-270 -303z" />
<glyph unicode="&#xe3;" d="M49 295q0 105 85 190q146 146 415 146q218 0 360 -102v258h-462v138h597v-999h-135v139q-142 -102 -360 -102q-270 0 -414 143q-86 85 -86 189zM193 295q0 -49 44 -100q110 -104 320 -105q216 -1 321 103q47 46 47 102q0 54 -40 94q-8 8 -13 12q-102 102 -315 103 q-202 1 -320 -111q-44 -51 -44 -98zM275 1184l266 184l237 -188l199 144l67 -91l-250 -184l-245 196l-211 -149z" />
<glyph unicode="&#xe4;" d="M49 295q0 105 85 190q146 146 415 146q218 0 360 -102v258h-462v138h597v-999h-135v139q-142 -102 -360 -102q-270 0 -414 143q-86 85 -86 189zM193 295q0 -49 44 -100q110 -104 320 -105q216 -1 321 103q47 46 47 102q0 54 -40 94q-8 8 -13 12q-102 102 -315 103 q-202 1 -320 -111q-44 -51 -44 -98zM498 1172v131h131v-131h-131zM854 1172v131l131 1v-132h-131z" />
<glyph unicode="&#xe5;" d="M49 295q0 105 85 190q146 146 415 146q218 0 360 -102v258h-462v138h597v-999h-135v139q-142 -102 -360 -102q-270 0 -414 143q-86 85 -86 189zM193 295q0 -49 44 -100q110 -104 320 -105q216 -1 321 103q47 46 47 102q0 54 -40 94q-8 8 -13 12q-102 102 -315 103 q-202 1 -320 -111q-44 -51 -44 -98zM489 1311q0 63 48 110q77 77 218 78q66 0 126 -22q141 -52 141 -166q0 -108 -141 -162q-60 -23 -126 -23q-137 0 -220 82q-46 44 -46 103zM592 1311q0 -19 16 -41q53 -53 147 -53q93 0 142 48q22 22 22 46t-16 44q-53 53 -148 54 q-93 0 -147 -54q-17 -22 -16 -44z" />
<glyph unicode="&#xe6;" horiz-adv-x="1822" d="M58 287q0 190 248 281q103 38 226 38q204 0 345 -98v245h-443v131h1016v-130h-443v-246h599v-132h-599v-245h754v-131h-754v-65h-130l-1 65l1 65q-143 -98 -345 -98q-253 0 -392 139q-82 81 -82 181zM188 287q0 -105 173 -162q81 -26 171 -26q204 0 302 100q42 43 43 88 q0 101 -169 160q-82 28 -176 28q-200 0 -303 -103q-41 -41 -41 -85z" />
<glyph unicode="&#xe7;" horiz-adv-x="995" d="M78 454q0 206 145 352q145 145 351 144q201 0 348 -139l-94 -98q-103 103 -255 103q-149 0 -249 -99q-3 -4 -11 -10q-92 -92 -92 -253q0 -155 99 -258q99 -102 253 -102q152 0 258 106l98 -98q-149 -143 -356 -143q-209 0 -352 143t-143 352zM487 -631h90q180 0 273 92 q38 37 38 76q0 36 -37 74q-90 90 -274 90h-70v299h139v-164q93 -9 172 -42q205 -86 205 -257q0 -185 -233 -267q-99 -36 -213 -36h-90v135z" />
<glyph unicode="&#xe8;" horiz-adv-x="1052" d="M68 1436l57 122l725 -356l-45 -78zM94 0v925h602v-135h-454v-258h617v-135h-617v-257h782l1 -140h-931z" />
<glyph unicode="&#xe9;" horiz-adv-x="1052" d="M70 1198l725 356l58 -123l-738 -311zM94 0v925h602v-135h-454v-258h617v-135h-617v-257h782l1 -140h-931z" />
<glyph unicode="&#xea;" horiz-adv-x="1052" d="M94 0v925h602v-135h-454v-258h617v-135h-617v-257h782l1 -140h-931zM108 1212l369 389l49 -53l325 -336l-103 -76l-271 301l-270 -303z" />
<glyph unicode="&#xeb;" horiz-adv-x="1052" d="M94 0v925h602v-135h-454v-258h617v-135h-617v-257h782l1 -140h-931zM121 1172v131h131v-131h-131zM477 1172v131l131 1v-132h-131z" />
<glyph unicode="&#xec;" horiz-adv-x="462" d="M-150 1436l57 122l726 -356l-46 -78zM154 925h155v-925h-154z" />
<glyph unicode="&#xed;" horiz-adv-x="462" d="M-171 1198l725 356l58 -123l-737 -311zM154 925h155v-925h-154z" />
<glyph unicode="&#xee;" horiz-adv-x="462" d="M-146 1200l369 389l49 -53l325 -336l-103 -76l-271 301l-270 -303zM154 925h155v-925h-154z" />
<glyph unicode="&#xef;" horiz-adv-x="462" d="M-12 1172v131h131v-131h-131zM154 925h155v-925h-154zM344 1172v131l132 1v-132h-132z" />
<glyph unicode="&#xf1;" horiz-adv-x="1351" d="M70 0v963l999 -758v725h143v-1000l-118 87l-877 671v-688h-147zM228 1266l266 184l237 -188l199 144l67 -91l-250 -184l-245 196l-211 -149z" />
<glyph unicode="&#xf2;" horiz-adv-x="1134" d="M91 454q0 208 146 354t354 146q207 0 351 -143t143 -357q0 -213 -143 -352q-147 -143 -352 -143t-356 143q-68 64 -107 163q-36 93 -36 189zM171 1436l58 122l725 -356l-45 -78zM234 454q0 -151 102 -253q115 -115 254 -115q140 0 242 102q110 110 110 266q0 160 -99 259 q-110 110 -253 110q-144 0 -247 -103l-7 -7q-102 -103 -102 -259z" />
<glyph unicode="&#xf3;" horiz-adv-x="1134" d="M91 454q0 208 146 354t354 146q207 0 351 -143t143 -357q0 -213 -143 -352q-147 -143 -352 -143t-356 143q-68 64 -107 163q-36 93 -36 189zM151 1198l725 356l58 -123l-738 -311zM234 454q0 -151 102 -253q115 -115 254 -115q140 0 242 102q110 110 110 266 q0 160 -99 259q-110 110 -253 110q-144 0 -247 -103l-7 -7q-102 -103 -102 -259z" />
<glyph unicode="&#xf4;" horiz-adv-x="1134" d="M91 454q0 208 146 354t354 146q207 0 351 -143t143 -357q0 -213 -143 -352q-147 -143 -352 -143t-356 143q-68 64 -107 163q-36 93 -36 189zM200 1200l369 389l49 -53l325 -336l-103 -76l-271 301l-270 -303zM234 454q0 -151 102 -253q115 -115 254 -115q140 0 242 102 q110 110 110 266q0 160 -99 259q-110 110 -253 110q-144 0 -247 -103l-7 -7q-102 -103 -102 -259z" />
<glyph unicode="&#xf5;" horiz-adv-x="1134" d="M91 454q0 208 146 354t354 146q207 0 351 -143t143 -357q0 -213 -143 -352q-147 -143 -352 -143t-356 143q-68 64 -107 163q-36 93 -36 189zM177 1266l266 184l237 -188l199 144l68 -91l-251 -184l-245 196l-211 -149zM234 454q0 -151 102 -253q115 -115 254 -115 q140 0 242 102q110 110 110 266q0 160 -99 259q-110 110 -253 110q-144 0 -247 -103l-7 -7q-102 -103 -102 -259z" />
<glyph unicode="&#xf6;" horiz-adv-x="1134" d="M91 454q0 208 146 354t354 146q207 0 351 -143t143 -357q0 -213 -143 -352q-147 -143 -352 -143t-356 143q-68 64 -107 163q-36 93 -36 189zM234 454q0 -151 102 -253q115 -115 254 -115q140 0 242 102q110 110 110 266q0 160 -99 259q-110 110 -253 110 q-144 0 -247 -103l-7 -7q-102 -103 -102 -259zM324 1172v131h131v-131h-131zM680 1172v131l132 1v-132h-132z" />
<glyph unicode="&#xf7;" horiz-adv-x="807" d="M65 516v131h664v-131h-664zM331 213v123h132v-123h-132zM331 795v124l132 -1v-123h-132z" />
<glyph unicode="&#xf8;" horiz-adv-x="1134" d="M70 455q0 207 147 353.5t353 146.5q99 0 188 -37l82 143l119 -70l-82 -143q32 -24 45 -37q143 -143 143 -357q0 -213 -143 -352q-147 -143 -352 -143q-102 0 -189 36l-94 -159l-119 65l94 160q-16 15 -49 41q-69 69 -105 163q-38 96 -38 190zM204 454q1 -143 112 -253 q4 -5 15 -17l357 615q-56 17 -118 16q-67 0 -135 -22q-81 -27 -114 -74q-2 -2 -5 -6q-112 -111 -112 -259zM451 115q63 -20 119 -21q146 0 253 106.5t106 253.5q-1 76 -28 142q-23 56 -78 117q-6 10 -16 16z" />
<glyph unicode="&#xf9;" d="M88 459v466h148v-466q0 -162 99 -258q105 -102 253 -102q149 0 251 105q101 105 101 255v466h148v-466q0 -213 -147 -357q-144 -139 -353 -139t-353 139q-68 66 -108 165q-39 94 -39 192zM171 1436l58 122l725 -356l-45 -78z" />
<glyph unicode="&#xfa;" d="M88 459v466h148v-466q0 -162 99 -258q105 -102 253 -102q149 0 251 105q101 105 101 255v466h148v-466q0 -213 -147 -357q-144 -139 -353 -139t-353 139q-68 66 -108 165q-39 94 -39 192zM177 1198l726 356l57 -123l-737 -311z" />
<glyph unicode="&#xfb;" d="M88 459v466h148v-466q0 -162 99 -258q105 -102 253 -102q149 0 251 105q101 105 101 255v466h148v-466q0 -213 -147 -357q-144 -139 -353 -139t-353 139q-68 66 -108 165q-39 94 -39 192zM217 1200l369 389l49 -53l325 -336l-104 -76l-270 301l-270 -303z" />
<glyph unicode="&#xfc;" d="M88 459v466h148v-466q0 -162 99 -258q105 -102 253 -102q149 0 251 105q101 105 101 255v466h148v-466q0 -213 -147 -357q-144 -139 -353 -139t-353 139q-68 66 -108 165q-39 94 -39 192zM334 1172v131h131v-131h-131zM690 1172v131l131 1v-132h-131z" />
<glyph unicode="&#xff;" horiz-adv-x="962" d="M-29 869l107 85l639 -786v786h147v-1744h-147v737zM172 1172v131h131v-131h-131zM529 1172v131l131 1v-132h-131z" />
<glyph unicode="&#x152;" horiz-adv-x="2793" d="M78 860q0 196 74 373q70 171 195 297q231 231 542 231q200 0 382 -104q99 -57 164 -125.5t101 -130.5v303h819v-164h-655v-574h827v-163h-826l-1 -639h1000v-164h-1164v319q-40 -70 -102 -131q-231 -229 -545 -229q-203 0 -380 105q-192 113 -307 318q-124 221 -124 478z M242 859q0 -333 221 -552q186 -184 426 -184q243 0 426 183q140 140 194 346q27 102 27 208q0 331 -221 553q-184 184 -426 184q-243 0 -426 -184q-221 -223 -221 -554z" />
<glyph unicode="&#x153;" horiz-adv-x="1843" d="M70 442q0 198 138.5 337t336.5 139q197 0 335 -140q9 -9 9 -8v114h573v-130h-442v-246h598v-131l-598 -1v-245h753v-131h-884v115q-2 -2 -8 -9q-140 -139 -336 -139q-198 0 -336.5 138.5t-138.5 336.5zM201 442q-1 -140 101.5 -242t242.5 -101q143 1 243.5 100.5 t100.5 242.5q0 144 -100 244.5t-244 100.5q-140 0 -241.5 -102t-102.5 -243z" />
<glyph unicode="&#x178;" horiz-adv-x="1396" d="M20 1701l164 64l521 -1052l524 1060l155 -73l-889 -1774l-164 74l283 541zM438 1790v131h132v-131h-132zM795 1790v131l131 1v-132h-131z" />
<glyph unicode="&#x2c6;" horiz-adv-x="860" d="M53 1905l369 389l49 -53l325 -336l-103 -76l-271 301l-270 -303z" />
<glyph unicode="&#x2dc;" horiz-adv-x="1134" d="M181 1946l266 184l237 -188l199 143l67 -90l-250 -184l-245 196l-212 -149z" />
<glyph unicode="&#x2000;" horiz-adv-x="1147" />
<glyph unicode="&#x2001;" horiz-adv-x="2294" />
<glyph unicode="&#x2002;" horiz-adv-x="1147" />
<glyph unicode="&#x2003;" horiz-adv-x="2294" />
<glyph unicode="&#x2004;" horiz-adv-x="764" />
<glyph unicode="&#x2005;" horiz-adv-x="573" />
<glyph unicode="&#x2006;" horiz-adv-x="382" />
<glyph unicode="&#x2007;" horiz-adv-x="382" />
<glyph unicode="&#x2008;" horiz-adv-x="286" />
<glyph unicode="&#x2009;" horiz-adv-x="458" />
<glyph unicode="&#x200a;" horiz-adv-x="127" />
<glyph unicode="&#x2010;" horiz-adv-x="700" d="M140 516v131h409v-131h-409z" />
<glyph unicode="&#x2011;" horiz-adv-x="700" d="M140 516v131h409v-131h-409z" />
<glyph unicode="&#x2012;" horiz-adv-x="700" d="M140 516v131h409v-131h-409z" />
<glyph unicode="&#x2013;" horiz-adv-x="794" d="M65 516v131h664v-131h-664z" />
<glyph unicode="&#x2014;" horiz-adv-x="1278" d="M102 516v131h1074v-131h-1074z" />
<glyph unicode="&#x2018;" horiz-adv-x="278" d="M-25 1606l116 94l184 -184l-74 -74z" />
<glyph unicode="&#x2019;" horiz-adv-x="278" d="M0 1516l184 184l116 -94l-226 -164z" />
<glyph unicode="&#x201a;" horiz-adv-x="364" d="M0 5l184 183l115 -94l-225 -164z" />
<glyph unicode="&#x201c;" horiz-adv-x="569" d="M-25 1606l116 94l184 -184l-74 -74zM270 1606l115 94l185 -184l-75 -74z" />
<glyph unicode="&#x201d;" horiz-adv-x="569" d="M-4 1516l185 184l114 -94l-225 -164zM291 1516l184 184l115 -94l-225 -164z" />
<glyph unicode="&#x201e;" horiz-adv-x="569" d="M-5 0l186 184l114 -94l-225 -164zM291 0l184 184l115 -94l-224 -164z" />
<glyph unicode="&#x2022;" horiz-adv-x="1020" d="M254 479q0 100 128 148q54 20 110 20q132 0 205 -74q40 -40 40 -94q0 -50 -41 -91q-71 -72 -204 -72q-126 0 -196 70q-42 42 -42 93z" />
<glyph unicode="&#x2026;" horiz-adv-x="1228" d="M78 0v131h131l-1 -131h-130zM557 0v131h131v-131h-131zM1041 0v131h130v-131h-130z" />
<glyph unicode="&#x202f;" horiz-adv-x="458" />
<glyph unicode="&#x2039;" horiz-adv-x="626" d="M61 442l50 50l336 318l98 -97l-308 -271l308 -270l-98 -98z" />
<glyph unicode="&#x203a;" horiz-adv-x="626" d="M61 172l308 270l-308 271l99 98l385 -369l-50 -49l-335 -319z" />
<glyph unicode="&#x205f;" horiz-adv-x="573" />
<glyph unicode="&#x2122;" horiz-adv-x="1711" d="M143 918q0 136 114 249q124 124 334 176q128 33 265 33q390 0 598 -209q115 -115 115 -249q0 -136 -115 -251q-132 -132 -362 -183q-111 -25 -236 -25q-388 0 -598 208q-115 114 -115 251zM242 918q0 -95 86 -181q117 -117 321 -160q99 -20 207 -20q146 0 283 42 q156 49 248 140q84 84 84 180q0 107 -107 198q-84 72 -205 113q-140 49 -303 48q-347 0 -528 -180q-86 -85 -86 -180zM430 987v98h275v-98h-87v-294h-98v294h-90zM762 693v442l90 -128l139 -200l135 205l91 131v-450h-99v130l-127 -188l-131 188l-1 -130h-97z" />
<glyph unicode="&#xe000;" horiz-adv-x="955" d="M0 0v956h956v-956h-956z" />
</font>
</defs>
</svg>
